# xmcd
#
# Track frame offsets: 
#        150
#        21474
#        37716
#        55700
#        72119
#        91856
#        105788
#        123311
#        138691
#        152949
#        167604
#        182871
#        198545
#        220750
#        240889
#        255430
#
# Disc length: 3628 seconds
#
# Revision: 6
# Processed by: cddbd v1.5.2PL0 Copyright (c) Steve Scherf et al.
# Submitted via: ExactAudioCopyFreeDBPlugin 1.0
#
DISCID=cc0e2a10
DTITLE=Various Artist - Alligator Records' Genuine Houserockin' Chris
DTITLE=tmas
DYEAR=2003
DGENRE=Holiday
TTITLE0=Koko Taylor - Have You Heard the News?
TTITLE1=Carey Bell - Christmas Train
TTITLE2=Michael Burks - Christmas Snow
TTITLE3=Lil' Ed and The Blues Imperials - Christmas Time
TTITLE4=Shemekia Copeland - Stay a Little Longer, Santa
TTITLE5=The Holmes Brothers - Back Door Santa
TTITLE6=W.C. Clark - Christmas Party
TTITLE7=C.J. Chenier - Zydeco Christmas
TTITLE8=Cephas and Wiggins - Christmas Day Blues
TTITLE9=Marcia Ball - Christmas Fais Do Do
TTITLE10=Roomful of Blues - Santa Claus, Do You Ever Get the Blues?
TTITLE11=Saffire - The Uppity Blues Women - Really Been Good This Year
TTITLE12=Lonnie Brooks - All I Want for Christmas
TTITLE13=Coco Montoya - A Bluesman's Christmas
TTITLE14=Little Charlie and The Nightcats - It's Christmas Time Again
TTITLE15=Dave Hole - Fattening Up the Turkey
EXTD=
EXTT0=
EXTT1=
EXTT2=
EXTT3=
EXTT4=
EXTT5=
EXTT6=
EXTT7=
EXTT8=
EXTT9=
EXTT10=
EXTT11=
EXTT12=
EXTT13=
EXTT14=
EXTT15=
PLAYORDER=
